<?xml version="1.0" encoding="utf-8"?>
<!-- Generator: Adobe Illustrator 16.0.0, SVG Export Plug-In . SVG Version: 6.00 Build 0)  -->
<!DOCTYPE svg PUBLIC "-//W3C//DTD SVG 1.1//EN" "http://www.w3.org/Graphics/SVG/1.1/DTD/svg11.dtd">
<svg version="1.1" xmlns="http://www.w3.org/2000/svg" xmlns:xlink="http://www.w3.org/1999/xlink" x="0px" y="0px" width="708.5px"
	 height="423.5px" viewBox="0 0 708.5 423.5" enable-background="new 0 0 708.5 423.5" xml:space="preserve">
<g id="Layer_2">
	<g>
		<polygon fill="#EE3424" points="454.43,269.167 437.479,260.5 213.354,260.5 195.639,269.167 		"/>
		<polygon fill="#EE3424" points="207.455,129.13 225.779,138.5 434.859,138.5 454.012,129.13 		"/>
		<path fill="#EE3424" d="M167.778,269.167l17.715-8.667h-47.069c-33.023,0-59.794-26.771-59.794-59.795v-2.41
			c0-33.024,26.771-59.795,59.794-59.795h60.465l-18.325-9.37h-48.64c-34.362,0-62.219,30.729-62.219,68.636v2.766
			c0,37.906,27.856,68.636,62.219,68.636H167.778z"/>
		<path fill="#EE3424" d="M524.115,129.13h-42.243l-19.152,9.37h52.615c33.024,0,59.795,26.771,59.795,59.795v2.41
			c0,33.023-26.771,59.795-59.795,59.795h-50.964l16.949,8.667h42.795c34.364,0,62.219-30.729,62.219-68.636v-2.766
			C586.334,159.859,558.479,129.13,524.115,129.13z"/>
	</g>
	<g>
		<path fill="#EE3424" d="M535.531,151.052h1.477c0.823,0,1.38,0.034,1.673,0.101c0.44,0.102,0.798,0.317,1.073,0.648
			c0.275,0.332,0.413,0.739,0.413,1.224c0,0.403-0.095,0.758-0.285,1.064c-0.189,0.306-0.461,0.538-0.813,0.694
			s-0.84,0.236-1.462,0.24l2.666,3.441h-0.916l-2.666-3.441h-0.418v3.441h-0.741V151.052z M536.272,151.777v2.519l1.276,0.01
			c0.495,0,0.86-0.047,1.098-0.141c0.237-0.094,0.422-0.245,0.555-0.451s0.199-0.437,0.199-0.693c0-0.249-0.066-0.474-0.201-0.677
			c-0.134-0.203-0.312-0.349-0.529-0.436c-0.22-0.087-0.583-0.131-1.091-0.131H536.272z"/>
	</g>
	<path fill="#EE3424" d="M537.535,149.55c-2.877,0-5.208,2.332-5.208,5.208s2.331,5.208,5.208,5.208
		c2.876,0,5.207-2.332,5.207-5.208S540.411,149.55,537.535,149.55z M537.535,159.438c-2.585,0-4.681-2.095-4.681-4.68
		s2.096-4.68,4.681-4.68c2.584,0,4.68,2.095,4.68,4.68S540.119,159.438,537.535,159.438z"/>
</g>
<g id="Layer_1">
	<path fill="none" d="M-770.823,438.965"/>
	<g>
		<g>
			<path fill="#EE3424" stroke="#EE3424" stroke-width="0.25" stroke-miterlimit="10" d="M103.842,240.885v-27.049h8.591v20.285
				h30.069v6.764H103.842z"/>
			<path fill="#EE3424" stroke="#EE3424" stroke-width="0.25" stroke-miterlimit="10" d="M146.529,240.885v-27.049h8.591v27.049
				H146.529z"/>
			<path fill="#EE3424" stroke="#EE3424" stroke-width="0.25" stroke-miterlimit="10" d="M167.739,240.885l-8.591-6.764v-20.285
				l8.591,6.762v13.523h8.591l8.591,6.764H167.739z M193.512,244.266L176.33,230.74h12.887l4.295,3.381h4.295v-13.523h-25.773
				l-8.591-6.762h34.364l8.591,6.762v16.906l-4.295,3.381l4.295,3.381H193.512z"/>
			<path fill="#EE3424" stroke="#EE3424" stroke-width="0.25" stroke-miterlimit="10" d="M227.608,240.885l-17.182-13.525v-13.523
				h8.591v10.143l12.887,10.143h8.591l8.591,6.764H227.608z M253.383,240.885l-8.592-6.764v-20.285h8.592V240.885z"/>
			<path fill="#EE3424" stroke="#EE3424" stroke-width="0.25" stroke-miterlimit="10" d="M257.409,240.885v-27.049h8.59v27.049
				H257.409z"/>
			<path fill="#EE3424" stroke="#EE3424" stroke-width="0.25" stroke-miterlimit="10" d="M270.026,240.885v-27.049h42.957
				l-8.592,6.762h-25.774v13.523h12.888l21.479-16.904v10.143l-17.183,13.525H270.026z"/>
			<path fill="#EE3424" stroke="#EE3424" stroke-width="0.25" stroke-miterlimit="10" d="M351.374,240.885l-34.364-27.049h12.886
				l34.366,27.049H351.374z M317.01,240.885v-23.668l8.59,6.762v3.381h4.296l8.592,6.762H325.6v6.764H317.01z"/>
			<path fill="#EE3424" stroke="#EE3424" stroke-width="0.25" stroke-miterlimit="10" d="M354.729,220.598l8.593-6.762h34.363v6.762
				H354.729z M371.912,240.885v-16.906h8.592v16.906H371.912z"/>
			<path fill="#EE3424" stroke="#EE3424" stroke-width="0.25" stroke-miterlimit="10" d="M401.713,240.885v-27.049l8.591,6.762
				v13.523h25.774l8.591,6.764H401.713z M448.964,240.885l-8.591-6.764v-13.523H414.6l-8.592-6.762h34.365l8.591,6.762V240.885z"/>
			<path fill="#EE3424" stroke="#EE3424" stroke-width="0.25" stroke-miterlimit="10" d="M452.99,240.885v-27.049h30.07
				l-8.592,6.762h-12.887v20.287H452.99z M487.355,240.885l-17.182-13.525l17.182-13.523h12.887l-17.182,13.523l17.182,13.525
				H487.355z"/>
			<path fill="#EE3424" stroke="#EE3424" stroke-width="0.25" stroke-miterlimit="10" d="M538.635,240.885l-34.365-27.049h12.887
				l34.364,27.049H538.635z M504.27,240.885v-6.764h21.479l8.591,6.764H504.27z M530.044,220.598l-8.593-6.762h30.069v6.762H530.044
				z"/>
		</g>
		<path fill="#EE3424" d="M134.844,208.662v-52.513h83.393v13.128h-66.714v26.254h25.018l16.679,13.131H134.844z M201.559,208.662
			l-33.357-26.257h25.018l33.357,26.257H201.559z"/>
		<path fill="#EE3424" d="M301.108,208.662l-66.714-52.513h25.018l66.714,52.513H301.108z M234.395,208.662v-45.949l16.679,13.128
			v6.563h8.339l16.678,13.126h-25.018v13.131H234.395z"/>
		<path fill="#EE3424" d="M332.029,208.662l66.714-52.513h25.018v52.513h-16.678v-39.385l-50.035,39.385H332.029z"/>
		<path fill="#EE3424" d="M429.949,208.662v-39.385l16.679-13.128h66.714v13.128h-66.714v26.254h66.714l-16.678,13.131H429.949z
			 M454.967,188.968v-13.127h33.357v13.127H454.967z"/>
	</g>
</g>
<g id="Layer_3">
	<path fill="#EE3424" d="M150.95,157.789c-5.221,0.78-10.923-0.775-16.106-0.257c1.037-5.702,3.11-10.885,7.257-15.032
		c0,5.702,3.628,10.885,7.947,14.486C150.616,157.494,150.95,157.789,150.95,157.789z"/>
	<path fill="#EE3424" d="M497.235,157.789c5.222,0.78,10.923-0.775,16.106-0.257c-1.037-5.702-3.11-10.885-7.258-15.032
		c0,5.702-3.627,10.885-7.946,14.486C497.57,157.494,497.235,157.789,497.235,157.789z"/>
</g>
</svg>
