<?xml version="1.0" encoding="utf-8"?>
<!-- Svg Vector Icons : http://www.onlinewebfonts.com/icon -->
<!DOCTYPE svg PUBLIC "-//W3C//DTD SVG 1.1//EN" "http://www.w3.org/Graphics/SVG/1.1/DTD/svg11.dtd">
<svg version="1.1" xmlns="http://www.w3.org/2000/svg" xmlns:xlink="http://www.w3.org/1999/xlink" x="0px" y="0px" viewBox="0 0 1000 1000" enable-background="new 0 0 1000 1000" xml:space="preserve">
<metadata> Svg Vector Icons : http://www.onlinewebfonts.com/icon </metadata>
<g><path d="M990,930.5L700.8,641.1c53.1-66.4,85-150.8,85-242.7C785.8,183.8,612,10,397.9,10C183.5,10,10,184.1,10,398.4s173.8,388.4,387.9,388.4c92.4,0,177.1-32.4,243.7-86.3L930.5,990L990,930.5z M152.4,644.4C86.8,578.9,50.8,491.6,50.8,398.7s36.2-180.2,101.6-245.8S305.3,50.8,397.9,50.8s179.9,36.2,245.5,101.8S745,305.5,745,398.4s-36.2,180.2-101.6,245.8C577.8,709.8,490.6,746,397.9,746C305.3,746.3,218,710,152.4,644.4z"/></g>
</svg>