<?xml version="1.0" encoding="utf-8"?>
<!-- Generator: Adobe Illustrator 16.0.0, SVG Export Plug-In . SVG Version: 6.00 Build 0)  -->
<!DOCTYPE svg PUBLIC "-//W3C//DTD SVG 1.1//EN" "http://www.w3.org/Graphics/SVG/1.1/DTD/svg11.dtd">
<svg version="1.1" id="Layer_1" xmlns="http://www.w3.org/2000/svg" xmlns:xlink="http://www.w3.org/1999/xlink" x="0px" y="0px"
	 width="220px" height="200px" viewBox="0 0 220 200" enable-background="new 0 0 220 200" xml:space="preserve">
<g>
	<path d="M99.542,20H10v18h89.542C98.547,35.185,98,32.157,98,29S98.547,22.815,99.542,20z"/>
	<path d="M207.75,20h-57.292c0.995,2.815,1.542,5.843,1.542,9s-0.547,6.185-1.542,9h57.292V20z"/>
	<path d="M144.388,22.146C141.564,14.161,133.952,8.438,125,8.438s-16.564,5.723-19.387,13.708c-0.758,2.144-1.175,4.45-1.175,6.854
		c0,2.404,0.417,4.71,1.175,6.854c2.822,7.985,10.435,13.708,19.387,13.708s16.564-5.723,19.388-13.708
		c0.757-2.144,1.174-4.45,1.174-6.854C145.562,26.596,145.145,24.29,144.388,22.146z"/>
</g>
<g>
	<path d="M131.542,91H10v18h121.542c-0.995-2.815-1.542-5.844-1.542-9C130,96.843,130.547,93.815,131.542,91z"/>
	<path d="M207.75,91h-25.292c0.995,2.815,1.542,5.843,1.542,9c0,3.156-0.547,6.185-1.542,9h25.292V91z"/>
	<path d="M177.331,92.812C174.37,84.439,166.389,78.438,157,78.438s-17.37,6.001-20.331,14.375
		c-0.795,2.249-1.231,4.667-1.231,7.188c0,2.521,0.437,4.939,1.231,7.188c2.961,8.373,10.942,14.375,20.331,14.375
		s17.37-6.002,20.331-14.375c0.795-2.248,1.231-4.667,1.231-7.188C178.562,97.479,178.126,95.061,177.331,92.812z"/>
</g>
<g>
	<path d="M29.542,162H10v18h19.542c-0.996-2.815-1.542-5.844-1.542-9S28.547,164.815,29.542,162z"/>
	<path d="M207.75,162H80.458c0.996,2.815,1.542,5.844,1.542,9s-0.547,6.185-1.542,9H207.75V162z"/>
	<path d="M75.428,163.778c-2.975-8.414-10.996-14.444-20.428-14.444s-17.454,6.03-20.428,14.444
		c-0.799,2.258-1.238,4.689-1.238,7.222s0.438,4.964,1.238,7.222c2.975,8.414,10.996,14.444,20.428,14.444
		s17.454-6.03,20.428-14.444c0.799-2.258,1.238-4.689,1.238-7.222S76.228,166.036,75.428,163.778z"/>
</g>
</svg>
